<?xml version="1.0" encoding="utf-8"?>
<!-- Generator: Adobe Illustrator 21.0.0, SVG Export Plug-In . SVG Version: 6.00 Build 0)  -->
<svg version="1.1" id="Layer_1" xmlns="http://www.w3.org/2000/svg" xmlns:xlink="http://www.w3.org/1999/xlink" x="0px" y="0px"
	 viewBox="0 0 51.5 26.4" style="enable-background:new 0 0 51.5 26.4;" xml:space="preserve">
<style type="text/css">
	.st0{fill:#FFFFFF;}
</style>
<g>
	<path class="st0" d="M2.3,3.7h5c3.4,0,5.8,1.8,5.8,4.8c0,3-2.4,4.7-5.8,4.7H4.8v7H2.3V3.7z M7.3,10.9c2.2,0,3.3-0.8,3.3-2.4
		c0-1.6-1.1-2.5-3.3-2.5H4.8v4.9H7.3z"/>
	<path class="st0" d="M13.7,14.4c0-3.3,2.4-6,5.9-6s5.9,2.7,5.9,6c0,3.3-2.4,6.1-5.9,6.1S13.7,17.7,13.7,14.4z M23,14.4
		c0-2.1-1.1-3.9-3.4-3.9s-3.4,1.8-3.4,3.9c0,2.2,1.1,4,3.4,4S23,16.5,23,14.4z"/>
	<path class="st0" d="M26.7,17.3l1.9-0.9c0.4,1,1.2,2.1,2.8,2.1c1.5,0,2.2-0.8,2.2-1.6c0-2.4-6.2-0.8-6.2-5c0-2.3,2-3.5,4.2-3.5
		c2,0,3.5,0.9,4.3,2.5l-1.9,1c-0.5-0.8-1.2-1.6-2.5-1.6c-1.1,0-1.8,0.5-1.8,1.3c0,2.1,6.2,0.8,6.2,5.2c0,2.6-2.2,3.8-4.4,3.8
		C29.2,20.5,27.3,19.1,26.7,17.3z"/>
	<path class="st0" d="M39.3,17v-6.4h-1.9v-2h2V5.5l2.4-1.7v4.8h3v2h-3v6c0,1.3,0.6,1.7,1.5,1.7c0.6,0,1.2-0.2,1.5-0.4l0,2.2
		c-0.4,0.2-1.2,0.3-2,0.3C40.5,20.5,39.3,19.2,39.3,17z"/>
</g>
</svg>
