<?xml version="1.0" standalone="no"?>
<!DOCTYPE svg PUBLIC "-//W3C//DTD SVG 20010904//EN"
 "http://www.w3.org/TR/2001/REC-SVG-20010904/DTD/svg10.dtd">
<svg version="1.0" xmlns="http://www.w3.org/2000/svg"
 width="260.000000pt" height="260.000000pt" viewBox="0 0 260.000000 260.000000"
 preserveAspectRatio="xMidYMid meet">
<metadata>
Created by potrace 1.11, written by Peter Selinger 2001-2013
</metadata>
<g transform="translate(0.000000,260.000000) scale(0.100000,-0.100000)"
fill="#000000" stroke="none">
<path d="M1168 2595 c-2 -2 -24 -6 -48 -9 -48 -6 -59 -8 -130 -25 -99 -23
-319 -112 -328 -133 -2 -5 -9 -8 -16 -8 -7 0 -22 -9 -34 -20 -12 -12 -22 -18
-22 -15 0 8 -46 -25 -78 -55 -12 -11 -22 -18 -22 -14 0 5 -109 -95 -134 -124
-6 -7 -24 -28 -41 -47 -53 -60 -65 -75 -65 -85 0 -6 -4 -10 -10 -10 -5 0 -10
-7 -10 -15 0 -9 -7 -18 -15 -21 -8 -4 -15 -13 -15 -21 0 -8 -7 -21 -15 -30 -8
-8 -13 -18 -10 -23 3 -4 -2 -11 -11 -14 -8 -3 -12 -10 -9 -16 3 -5 1 -10 -5
-10 -6 0 -8 -4 -5 -10 3 -5 1 -10 -4 -10 -6 0 -11 -6 -11 -14 0 -7 -11 -34
-25 -60 -13 -25 -23 -46 -20 -46 2 0 -3 -17 -11 -37 -9 -20 -17 -46 -18 -57
-1 -12 -8 -32 -15 -45 -9 -16 -10 -21 -1 -16 8 5 9 2 1 -11 -19 -36 -29 -102
-17 -115 8 -9 8 -10 -1 -5 -15 8 -15 3 -18 -154 -1 -58 0 -108 2 -113 2 -4 6
-40 8 -79 3 -39 8 -74 12 -77 4 -3 8 -17 7 -31 0 -14 3 -30 8 -36 5 -7 8 -16
7 -20 -3 -19 1 -35 9 -31 4 3 7 -8 8 -25 1 -16 6 -39 11 -51 6 -12 21 -47 34
-77 36 -84 117 -223 154 -264 19 -21 44 -51 56 -68 43 -56 111 -118 123 -111
6 3 8 3 4 -2 -9 -10 42 -56 54 -49 4 3 8 -2 8 -10 0 -8 9 -18 20 -21 11 -3 20
-11 20 -16 0 -5 7 -9 15 -9 8 0 15 -4 15 -10 0 -5 4 -10 10 -10 5 0 26 -11 46
-25 44 -30 180 -95 198 -95 7 0 16 -4 21 -9 9 -8 121 -41 140 -41 3 0 3 5 -1
12 -4 7 -3 8 5 4 6 -4 9 -11 7 -15 -16 -25 337 -49 454 -30 107 17 155 26 155
29 0 1 11 4 24 6 56 10 211 72 223 89 4 5 8 7 8 3 0 -4 18 2 40 13 22 12 37
26 33 32 -3 6 -1 7 5 3 15 -9 95 42 154 97 10 9 18 14 18 10 0 -5 4 -3 8 2 4
6 26 27 49 47 23 20 39 39 35 42 -3 3 0 6 6 6 15 0 52 36 52 50 0 6 4 10 8 10
4 0 26 24 47 53 22 28 43 54 48 55 4 2 7 7 7 12 0 4 17 37 39 71 72 121 138
292 157 414 3 22 10 60 14 85 9 49 6 317 -5 365 -21 99 -28 126 -45 183 -11
35 -23 69 -27 75 -4 7 -8 14 -9 17 -6 33 -18 60 -27 60 -6 0 -8 3 -4 6 13 14
-113 218 -177 287 -14 15 -26 32 -26 37 0 5 -9 12 -20 15 -11 3 -20 11 -20 16
0 5 -14 22 -31 37 -17 15 -41 37 -54 50 -13 12 -28 22 -33 22 -6 0 -13 7 -16
16 -3 8 -10 12 -16 9 -5 -3 -10 -1 -10 4 0 10 -50 46 -110 79 -65 37 -181 92
-193 92 -7 0 -17 4 -23 8 -8 8 -68 27 -116 38 -10 2 -28 6 -40 9 -91 22 -141
27 -270 30 -80 2 -148 2 -150 0z m-364 -141 c3 -8 2 -12 -4 -9 -6 3 -10 10
-10 16 0 14 7 11 14 -7z m-717 -1261 c0 -9 -4 -10 -14 -2 -7 6 -13 12 -13 14
0 1 6 2 13 2 8 0 14 -6 14 -14z m156 -268 c-3 -9 -8 -14 -10 -11 -3 3 -2 9 2
15 9 16 15 13 8 -4z m452 -525 c-3 -5 -12 -10 -18 -10 -7 0 -6 4 3 10 19 12
23 12 15 0z m75 -194 c0 -2 -7 -7 -16 -10 -8 -3 -12 -2 -9 4 6 10 25 14 25 6z"/>
</g>
</svg>
